<?xml version="1.0" standalone="no"?><!DOCTYPE svg PUBLIC "-//W3C//DTD SVG 1.1//EN" "http://www.w3.org/Graphics/SVG/1.1/DTD/svg11.dtd"><svg t="1640018536656" class="icon" viewBox="0 0 1024 1024" version="1.1" xmlns="http://www.w3.org/2000/svg" p-id="11637" width="64" height="64" xmlns:xlink="http://www.w3.org/1999/xlink"><defs><style type="text/css"></style></defs><path d="M1023.0784 463.9232a103.8336 103.8336 0 0 0-37.2224-67.3792l-90.5728-71.7824a92.8768 92.8768 0 0 0-58.4192-20.6848c-31.0784 0-58.9824 14.6944-77.1072 40.8064L497.5616 707.584a16.5376 16.5376 0 0 1-2.6112 3.84 40.7552 40.7552 0 0 0-9.3184 18.9952l-38.7584 251.7504a37.376 37.376 0 0 0 12.9024 33.7408c5.6832 4.864 13.4144 8.1408 21.1968 8.1408a40.2432 40.2432 0 0 0 13.4656-2.7136l228.608-99.4816a36.1984 36.1984 0 0 0 17.0496-16.896l263.2704-364.8a104.448 104.448 0 0 0 19.6608-76.1856h0.0512z m-327.424 382.8224l-7.2192 11.4176-48.64 18.9952-114.3296 50.5856 22.272-144.5888 5.6832-34.304 202.752-280.576 135.5264 108.288-196.0448 270.1824z m253.952-351.8464l-17.0496 23.4496-135.5264-108.1856 17.1008-23.3984a26.624 26.624 0 0 1 22.7328-11.4176c6.144-0.3072 12.288 1.8432 17.1008 5.9904l90.5216 71.7312a30.5664 30.5664 0 0 1 5.12 41.8816z m-251.392-273.408c0-21.76-15.0016-38.656-33.5872-38.656h-460.288c-18.688 0-33.6896 17.408-33.6896 38.656 0 21.1968 15.0528 38.5536 33.6384 38.5536h460.288c18.6368 0.5632 33.6384-17.408 33.6384-38.5536zM203.264 389.4784c-17.6128 0-32.1024 17.408-32.1024 38.6048 0 21.76 14.4896 38.6048 32.1024 38.6048h344.4736c17.6128 0 32.0512-17.92 32.0512-38.6048s-14.4384-38.6048-32.0512-38.6048H203.264z m200.704 207.1552H201.728c-17.1008 0-31.0784 17.408-31.0784 38.6048 0 21.7088 14.0288 38.6048 31.0784 38.6048h201.728c17.0496 0 31.0272-17.408 31.0272-38.6048 0-21.76-13.4656-38.6048-30.5152-38.6048z" fill="#515151" p-id="11638"></path><path d="M365.8752 951.1424H108.4416c-21.76 0-39.424-18.7392-39.5264-42.0352V114.8928c0-11.3152 4.096-22.1184 12.1344-29.6448a37.6832 37.6832 0 0 1 27.904-12.4416H846.336c21.8112 0 39.5264 18.944 39.5264 42.0864v140.8h0.512c0 19.968 15.2064 36.7104 34.5088 36.7104a32.9216 32.9216 0 0 0 24.4224-10.5984 37.888 37.888 0 0 0 10.0352-26.0608h0.512v-140.8c0-31.2832-11.6736-59.904-31.9488-81.4592A104.0896 104.0896 0 0 0 847.3088 0H108.032c-28.4672 0-56.32 11.3152-76.0832 33.4848-20.48 21.4016-31.9488 50.7904-31.8976 81.408v794.2144C0 972.2368 48.64 1024 107.9296 1024h257.9456c18.3808-0.4096 33.024-16.4864 32.9728-36.1472 0.256-19.8144-14.4384-36.1984-32.9728-36.7104z" fill="#515151" p-id="11639"></path></svg>